<?xml version='1.0' encoding='utf-8'?>
<svg xmlns="http://www.w3.org/2000/svg" version="1.1" width="1279px" height="918px" viewBox="-111 616 1279 918"> <g id="layer1"> <g style="fill:rgb(0,174,199); fill-opacity:1.0; stroke-linejoin: miter"> <path d="M-111.001,615.2954C-111.187614,615.2954,-111.366585,615.3695,-111.49854,615.50146C-111.6305,615.6334,-111.704636,615.8124,-111.704636,615.999L-111.703636,1534.0C-111.703636,1534.3885,-111.3886,1534.7036,-111.0,1534.7036L1168.001,1534.7046C1168.1876,1534.7046,1168.3666,1534.6305,1168.4985,1534.4985C1168.6305,1534.3666,1168.7046,1534.1876,1168.7046,1534.001L1168.7036,616.0C1168.7036,615.6114,1168.3885,615.2964,1168.0,615.2964L-111.001,615.2954 Z"/> </g> <g style="fill:rgb(0,0,0); fill-opacity:1.0; stroke-linejoin: miter"> <path d="M996.6234,1366.5897L992.4984,1367.3003Q963.1721,1369.4474,820.8816,1370.7349Q677.6063,1372.0215,483.44894,1371.7778Q298.15063,1371.4377,187.05432,1369.7892Q76.04756,1368.1284,97.028564,1365.8788Q126.35454,1363.7318,268.6454,1362.444Q411.92062,1361.1578,606.07825,1361.401Q791.37585,1361.7413,902.47266,1363.39Q938.0691,1363.9226,961.114,1364.5513L980.4824,1365.1979Q996.44385,1365.8645,996.6234,1366.5897"/> </g> <g style="fill:rgb(60,70,79); fill-opacity:1.0; stroke-linejoin: miter"> <path d="M344.87466,1142.5139L547.19727,1142.5145L749.52,1142.5143Q749.52,1155.9124,749.52,1169.3104Q547.19727,1169.3109,344.87466,1169.3113Q344.87466,1155.9125,344.87466,1142.5139"/> </g> <g style="fill:rgb(99,112,121); fill-opacity:1.0; stroke-linejoin: miter"> <path d="M509.335,1131.5781L547.19727,1131.5786L585.0597,1131.5784Q585.0597,1155.9124,585.0597,1180.246Q547.19727,1180.2468,509.335,1180.2468Q509.335,1155.9126,509.335,1131.5781"/> </g> <g style="fill:rgb(237,238,226); fill-opacity:1.0; stroke-linejoin: miter"> <path d="M365.48712,949.996L141.66862,951.5183L141.66948,1343.4392L365.48706,1341.914L365.48712,949.996 Z"/> </g> <g style="fill:rgb(255,255,255); fill-opacity:0.54509807; stroke-linejoin: miter"> <path d="M365.487,978.42017L357.91083,978.8114L348.79367,979.2826L349.5105,993.15063L365.487,992.32654L365.487,978.42017 Z"/> </g> <g style="fill:rgb(99,112,121); fill-opacity:1.0; stroke-linejoin: miter"> <path d="M210.77055,1335.4904L256.15848,1335.4908L301.54648,1335.4906Q301.54648,1347.0588,301.54648,1358.6272Q256.15848,1358.6272,210.77055,1358.6274Q210.77055,1347.0591,210.77055,1335.4904"/> </g> <g style="fill:rgb(99,112,121); fill-opacity:1.0; stroke-linejoin: miter"> <path d="M200.98361,936.9872L258.76282,934.0138L316.5422,931.04065Q317.214,944.0925,317.88553,957.1444Q260.1062,960.1183,202.32709,963.09204Q201.65535,950.0397,200.98361,936.9872"/> </g> <g style="fill:rgb(0,0,0); fill-opacity:1.0; stroke-linejoin: miter"> <path d="M222.05447,944.8873L289.44254,944.8876Q290.55795,944.8889,291.57532,944.9287Q292.16998,944.9282,294.3354,945.12537Q296.84915,945.4055,297.36502,945.87476Q297.8728,946.12976,296.3492,946.6074Q294.70703,946.99976,291.57318,947.131Q290.55392,947.1708,289.44254,947.17224L222.05447,947.172Q218.64803,947.15967,216.39607,946.838Q214.14375,946.5166,214.05942,946.03Q214.14375,945.54297,216.39607,945.22107Q218.64803,944.8998,222.05447,944.8873 M186.80579,965.4463L324.6889,965.4464Q361.45544,965.48584,364.82324,965.9081L364.8233,1331.6256L186.80553,1332.0881Q150.06291,1332.049,146.67128,1331.6259L146.67137,965.9081Q150.06244,965.4851,186.80579,965.4463 M230.62122,1338.9312L280.87564,1338.9321Q281.98712,1338.9354,283.00632,1339.2163Q283.60114,1339.2117,285.7673,1340.594Q288.28192,1342.555,288.7979,1345.839Q289.30582,1347.6257,287.7821,1350.968Q286.14005,1353.7175,283.0058,1354.6371Q281.9861,1354.9185,280.87564,1354.9222L230.62122,1354.923Q227.21481,1354.837,224.96274,1352.5848Q222.71048,1350.333,222.62608,1346.9266Q222.71048,1343.5204,224.96274,1341.268Q227.21481,1339.0153,230.62122,1338.9312 M339.4667,927.75354L172.02747,927.7538Q164.58759,926.5708,151.97327,935.2866Q141.66252,944.1749,139.54654,959.05994L139.24838,1000.8779Q137.0181,1001.3176,136.83441,1003.619L136.83435,1086.0361Q137.01804,1088.3368,139.24838,1088.7759L139.24823,1327.829Q138.56061,1330.6232,141.81636,1341.959Q149.25447,1360.2179,167.5675,1363.734L339.4666,1364.0636Q346.9065,1365.2487,359.52094,1356.5322Q369.83157,1347.6436,371.94757,1332.7588L372.2456,1059.4298Q374.7633,1059.3503,374.9948,1058.532L374.9948,1031.7734Q374.7633,1030.9553,372.2456,1030.8761L372.24585,963.98804Q372.23303,958.9553,371.07877,954.33374Q363.76907,929.5254,339.4667,927.75354 Z"/> </g> <g style="fill:rgb(237,238,226); fill-opacity:1.0; stroke-linejoin: miter"> <path d="M947.5099,949.9961L723.69116,951.5183L723.69214,1343.4392L947.5099,1341.9144L947.5099,949.9961 Z"/> </g> <g style="fill:rgb(255,255,255); fill-opacity:0.54509807; stroke-linejoin: miter"> <path d="M947.5099,978.4203L939.9336,978.8115L930.81616,979.2827L931.5332,993.15076L947.5099,992.32666L947.5099,978.4203 Z"/> </g> <g style="fill:rgb(99,112,121); fill-opacity:1.0; stroke-linejoin: miter"> <path d="M792.79297,1335.4904L838.18115,1335.4912L883.5692,1335.4908Q883.5692,1347.0591,883.5692,1358.6274Q838.18115,1358.6274,792.79297,1358.6274Q792.79297,1347.0591,792.79297,1335.4904"/> </g> <g style="fill:rgb(99,112,121); fill-opacity:1.0; stroke-linejoin: miter"> <path d="M783.00635,936.9872L840.7855,934.0139L898.56494,931.0408Q899.2366,944.09265,899.9083,957.14453Q842.1289,960.1184,784.34973,963.09204Q783.67786,950.0397,783.00635,936.9872"/> </g> <g style="fill:rgb(0,0,0); fill-opacity:1.0; stroke-linejoin: miter"> <path d="M804.0769,944.88745L871.46533,944.8877Q872.5808,944.88904,873.59827,944.92883Q874.1926,944.92834,876.35815,945.1255Q878.8718,945.40564,879.3878,945.8749Q879.89575,946.1299,878.3721,946.60754Q876.72974,946.9999,873.5958,947.1311Q872.57666,947.1709,871.46533,947.17236L804.0769,947.1721Q800.67065,947.1598,798.4187,946.83813Q796.1666,946.5167,796.08203,946.03015Q796.1666,945.5431,798.4187,945.2212Q800.67065,944.8999,804.0769,944.88745 M768.82837,965.4463L906.71155,965.44653Q943.47815,965.48596,946.84607,965.9082L946.84607,1331.626L768.8281,1332.0881Q732.0856,1332.049,728.69385,1331.6259L728.69385,965.9081Q732.08496,965.4851,768.82837,965.4463 M812.6439,1338.9314L862.8982,1338.9324Q864.00964,1338.9357,865.0292,1339.2166Q865.6238,1339.212,867.7899,1340.5942Q870.30457,1342.5553,870.8207,1345.8392Q871.32825,1347.626,869.8048,1350.9683Q868.1627,1353.7178,865.02856,1354.6373Q864.0088,1354.9187,862.8982,1354.9225L812.6439,1354.9232Q809.2374,1354.8373,806.9852,1352.5851Q804.73303,1350.3333,804.6487,1346.9269Q804.73303,1343.5206,806.9852,1341.2682Q809.2374,1339.0155,812.6439,1338.9314 M921.48926,927.75366L754.0502,927.7538Q746.6101,926.5708,733.9957,935.2866Q723.68494,944.1749,721.5691,959.05994L721.2709,1000.8779Q719.04065,1001.3176,718.85693,1003.619L718.85693,1086.0363Q719.0405,1088.3367,721.2709,1088.776L721.27075,1327.829Q720.5831,1330.6232,723.83875,1341.959Q731.277,1360.2179,749.5902,1363.734L921.4894,1364.064Q928.9293,1365.249,941.5438,1356.5327Q951.8544,1347.6439,953.97034,1332.7592L954.26843,1059.4298Q956.78613,1059.3506,957.0176,1058.532L957.0176,1031.7737Q956.78613,1030.9556,954.26843,1030.8763L954.26843,963.98816Q954.25574,958.95544,953.10156,954.33386Q945.79175,929.5255,921.48926,927.75366 Z"/> </g> <g style="fill:rgb(60,70,79); fill-opacity:1.0; stroke-linejoin: miter"> <path d="M457.9143,1203.7754L457.9143,1203.7754L512.40906,1203.775Q512.40906,1217.3992,512.40906,1231.0232L457.9143,1203.7754"/> </g> <g style="fill:rgb(60,70,79); fill-opacity:1.0; stroke-linejoin: miter"> <path d="M457.9143,1203.7754L520.80054,1203.7755L583.6865,1203.775Q583.6865,1199.4166,583.6865,1195.0582Q520.80054,1195.0577,457.9144,1195.0571Q457.9144,1199.4165,457.9143,1203.7754"/> </g> <g style="fill:rgb(60,70,79); fill-opacity:1.0; stroke-linejoin: miter"> <path d="M637.1699,1110.0276L637.1699,1110.0281L582.6752,1110.0281Q582.6752,1096.404,582.6752,1082.7804L637.1699,1110.0276"/> </g> <g style="fill:rgb(60,70,79); fill-opacity:1.0; stroke-linejoin: miter"> <path d="M637.1699,1110.0276L574.2838,1110.0281L511.39767,1110.0292Q511.39767,1114.3872,511.39767,1118.7456Q574.2838,1118.7456,637.1699,1118.7463Q637.1699,1114.387,637.1699,1110.0276"/> </g> <g> <g style="fill:rgb(60,70,79); fill-opacity:1.0; stroke-linejoin: miter"> <path d="M599.823,929.13794L616.1094,929.1387L616.1095,1018.0969L599.8231,1018.0978L599.823,929.13794"/> </g> <g style="fill:rgb(60,70,79); fill-opacity:1.0; stroke-linejoin: miter"> <path d="M555.95276,929.1383L564.0958,929.1387L572.2389,929.1388Q572.23914,973.6179,572.23914,1018.0969Q564.0958,1018.09753,555.95276,1018.098Q555.95276,973.61816,555.95276,929.1383"/> </g> <g style="fill:rgb(60,70,79); fill-opacity:1.0; stroke-linejoin: miter"> <path d="M512.0823,929.1382L528.3685,929.1389L528.36865,1018.0974L512.0824,1018.09814L512.0823,929.1382"/> </g> <g style="fill:rgb(60,70,79); fill-opacity:1.0; stroke-linejoin: miter"> <path d="M468.21182,929.1382L476.35495,929.1382L484.4981,929.13855Q484.4981,973.6179,484.4981,1018.0969Q476.355,1018.0978,468.21182,1018.098Q468.21176,973.6179,468.21182,929.1382"/> </g> </g> <g style="fill:rgb(60,70,79); fill-opacity:1.0; stroke-linejoin: miter"> <path d="M443.61844,917.19543L443.61844,917.19556L640.70264,917.19495Q591.43164,892.55945,542.1605,867.9241L443.61844,917.19543"/> </g> <g style="fill:rgb(60,70,79); fill-opacity:1.0; stroke-linejoin: miter"> <path d="M458.12125,1015.2311L542.16064,1015.23157L626.2001,1015.2324Q626.2001,1027.0544,626.19995,1038.8768Q542.16064,1038.878,458.12125,1038.8787Q458.12125,1027.0548,458.12125,1015.2311"/> </g> <g style="fill:rgb(60,70,79); fill-opacity:1.0; stroke-linejoin: miter"> <path d="M440.955,1031.3546L542.16064,1031.355L643.3662,1031.3556Q643.3662,1043.1779,643.36633,1055.0005Q542.16064,1055.0015,440.955,1055.0023Q440.955,1043.1785,440.955,1031.3546"/> </g> <g style="fill:rgb(38,120,95); fill-opacity:1.0; stroke-linejoin: miter"> <path d="M763.52185,1104.3307C762.82825,1105.3729,762.4619,1105.935,762.46875,1105.9532C762.54626,1106.0698,774.59534,1114.3301,789.27673,1124.3225L815.9553,1142.5074L852.6852,1088.8549L889.3915,1035.1885L862.5123,1016.83484L835.63184,998.4811L799.01184,1052.112C781.89197,1077.1836,767.44836,1098.4366,763.52185,1104.3307 Z M785.8884,1094.4198L809.7185,1059.518L833.5502,1024.6171L785.8884,1094.4198 Z M839.3707,1079.4155C839.35864,1079.433,839.3473,1079.4506,839.3346,1079.4684C839.323,1079.4857,839.312,1079.5035,839.30005,1079.5214 Z M818.21765,1116.3372L865.83484,1046.5988L842.0198,1081.4781L818.21765,1116.3372 Z"/> </g> <g style="fill:rgb(38,120,95); fill-opacity:1.0; stroke-linejoin: miter"> <path d="M760.4386,1105.6283C760.5167,1105.7443,772.5654,1114.0035,787.24756,1123.9965L813.9265,1142.1814L850.656,1088.5294L887.3627,1034.8629L860.4835,1016.50977L833.604,998.1559L796.9835,1051.7859C776.838,1081.289,760.39746,1105.5044,760.4386,1105.6283 Z M832.92993,1024.9064C835.8124,1026.1812,838.54285,1026.1527,841.3817,1024.8126C842.4132,1024.3185,843.322,1023.67847,843.94495,1023.00024C844.4501,1022.3976,845.0183,1021.9359,845.16907,1021.94446C845.7549,1021.96484,860.9794,1032.3611,861.0189,1032.7655C861.01575,1032.953,860.77014,1033.636,860.4597,1034.2756C859.6909,1035.7692,859.4336,1038.7784,859.8961,1040.5455C860.4043,1042.3425,861.5034,1044.1969,862.7694,1045.3446L863.8058,1046.273L839.9917,1081.1533L816.1898,1116.0112L814.57996,1115.3215C813.70276,1114.9423,812.5088,1114.5685,811.93176,1114.4912C809.2261,1114.1566,805.62427,1115.324,803.93506,1117.1029C803.54846,1117.5315,803.03015,1118.0598,802.7887,1118.2743L802.36536,1118.71L794.4093,1113.2771C785.5065,1107.1982,786.27783,1108.0088,787.3054,1105.9032C788.0294,1104.3815,788.23206,1102.282,787.8511,1100.2557C787.4413,1098.0839,785.9243,1095.5033,784.484,1094.5188L783.86084,1094.0933L807.6909,1059.1919L831.52246,1024.2919L832.92993,1024.9064 Z"/> </g> <g style="fill:rgb(38,120,95); fill-opacity:1.0; stroke-linejoin: miter"> <path d="M809.0292,1063.5116C807.8362,1066.2267,807.3801,1069.575,807.81726,1072.49C808.2555,1075.3124,809.1135,1077.3793,810.8059,1079.7952C811.9652,1081.4705,812.3015,1081.7632,814.7744,1083.452C817.18286,1085.0968,817.67883,1085.3392,819.48645,1085.7861C823.4037,1086.7903,827.2213,1086.464,830.6183,1084.9059C837.0497,1081.95,840.9491,1074.8073,839.9138,1067.9214C838.6958,1059.8688,832.1245,1054.0247,824.12305,1053.9216C817.7156,1053.8354,811.57764,1057.7467,809.0292,1063.5116 Z"/> </g> <g style="fill:rgb(42,175,134); fill-opacity:1.0; stroke-linejoin: miter"> <path d="M810.3756,1061.0963C813.3883,1056.6825,818.6582,1053.8488,824.12305,1053.9216C832.1245,1054.0247,838.6958,1059.8688,839.9138,1067.9214C840.5143,1071.9176,839.4546,1076.0007,837.2003,1079.3004C835.5707,1081.687,833.3168,1083.665,830.6183,1084.9059C827.2213,1086.464,823.4037,1086.7903,819.48645,1085.7861C817.67883,1085.3392,817.18286,1085.0968,814.7744,1083.452C812.3015,1081.7632,811.9652,1081.4705,810.8059,1079.7952C809.1135,1077.3793,808.2555,1075.3124,807.81726,1072.49C807.3801,1069.575,807.8362,1066.2267,809.0292,1063.5116C809.4043,1062.664,809.8574,1061.8568,810.3756,1061.0963 Z M783.86084,1094.0933L784.484,1094.5188C785.9243,1095.5033,787.4413,1098.0839,787.8511,1100.2557C788.23206,1102.282,788.0294,1104.3815,787.3054,1105.9032C786.27783,1108.0088,785.5065,1107.1982,794.4093,1113.2771L802.36536,1118.71L802.7887,1118.2743C803.03015,1118.0598,803.54846,1117.5315,803.93506,1117.1029C805.62427,1115.324,809.2261,1114.1566,811.93176,1114.4912C812.5088,1114.5685,813.70276,1114.9423,814.57996,1115.3215L816.1898,1116.0112L863.8058,1046.273L862.7694,1045.3446C861.5034,1044.1969,860.4043,1042.3425,859.8961,1040.5455C859.4336,1038.7784,859.6909,1035.7692,860.4597,1034.2756C860.77014,1033.636,861.01575,1032.953,861.0189,1032.7655C860.9794,1032.3611,845.7549,1021.96484,845.16907,1021.94446C845.0183,1021.9359,844.4501,1022.3976,843.94495,1023.00024C843.322,1023.67847,842.4132,1024.3185,841.3817,1024.8126C838.54285,1026.1527,835.8124,1026.1812,832.92993,1024.9064L831.52246,1024.2919 Z"/> </g> <g style="fill:rgb(18,91,69); fill-opacity:1.0; stroke-linejoin: miter"> <path d="M814.7754,1063.7155L816.8318,1064.9027Q816.5454,1067.029,817.4597,1068.9891Q818.37415,1070.9493,820.3384,1072.0834Q821.5967,1072.8098,823.01587,1072.9745Q824.4043,1073.1213,825.7113,1072.771Q827.01843,1072.4209,828.16504,1071.5688Q829.29407,1070.7474,830.0206,1069.4891L830.12695,1069.305Q830.401,1068.972,830.81885,1068.8861Q831.2368,1068.8,831.63574,1069.0303Q832.06555,1069.2784,832.1952,1069.7625Q832.32495,1070.2466,832.0768,1070.6763Q831.82874,1071.1061,831.3446,1071.2356Q830.8605,1071.3654,830.4309,1071.1174L827.4895,1076.212Q828.47156,1076.779,829.5388,1076.9861Q830.5576,1077.2059,831.6261,1077.1272Q832.64624,1077.0614,833.63684,1076.6921Q834.5969,1076.3053,835.43066,1075.6409L837.7633,1076.9874L840.74023,1071.8314L838.13135,1070.3252Q838.18396,1068.3914,837.25525,1066.6685Q836.3574,1064.9634,834.5773,1063.9355Q833.31885,1063.2091,831.8998,1063.0444Q830.51135,1062.8975,829.20435,1063.2479Q827.8971,1063.598,826.7506,1064.4502Q825.6216,1065.2716,824.895,1066.5298L824.7887,1066.714Q824.5149,1067.0469,824.06616,1067.1154Q823.6482,1067.2013,823.2799,1066.9888Q822.8502,1066.7407,822.6897,1066.2388Q822.56006,1065.7548,822.808,1065.325Q823.056,1064.8954,823.5709,1064.7833Q824.05505,1064.6534,824.48474,1064.9016L827.4264,1059.807Q825.6461,1058.7793,823.6897,1058.8364Q821.7334,1058.8936,820.08484,1059.9061L817.7523,1058.5593 Z"/> </g> <g style="fill:rgb(42,175,134); fill-opacity:1.0; stroke-linejoin: miter"> <path d="M814.7838,1064.2963L816.8402,1065.4834Q816.55383,1067.6096,817.46814,1069.57Q818.38257,1071.53,820.3468,1072.6642Q821.6051,1073.3906,823.0243,1073.555Q824.4127,1073.702,825.7197,1073.3518Q827.02686,1073.0015,828.17346,1072.1493Q829.3025,1071.3281,830.02905,1070.0698L830.1354,1069.8856Q830.4093,1069.5529,830.82715,1069.4667Q831.24524,1069.3806,831.6443,1069.611Q832.07385,1069.8591,832.2036,1070.3431Q832.3334,1070.8273,832.0853,1071.257Q831.83716,1071.6865,831.353,1071.8164Q830.869,1071.9462,830.43933,1071.698L827.4978,1076.7927Q828.48,1077.3597,829.54724,1077.5667Q830.56604,1077.7866,831.6345,1077.7078Q832.65466,1077.6421,833.64526,1077.273Q834.60535,1076.8859,835.4391,1076.2214L837.7716,1077.5682L840.74854,1072.412L838.1398,1070.9058Q838.1924,1068.9719,837.2638,1067.2491Q836.36584,1065.5441,834.5857,1064.5161Q833.3273,1063.7898,831.9082,1063.6252Q830.5199,1063.4783,829.21265,1063.8285Q827.90564,1064.1787,826.75903,1065.0309Q825.6301,1065.8522,824.90356,1067.1107L824.79724,1067.2948Q824.5232,1067.6277,824.0746,1067.6959Q823.6566,1067.7821,823.2883,1067.5693Q822.85864,1067.3214,822.69824,1066.8196Q822.5685,1066.3354,822.8164,1065.9056Q823.06445,1065.4758,823.57935,1065.3639Q824.0635,1065.2341,824.49316,1065.4823L827.4347,1060.3877Q825.65454,1059.36,823.6981,1059.417Q821.7418,1059.4744,820.0934,1060.4868L817.76074,1059.14 Z"/> </g> <g style="fill:rgb(38,120,95); fill-opacity:1.0; stroke-linejoin: miter"> <path d="M787.32825,1086.6467C786.2064,1087.2025,785.60815,1087.5062,785.60486,1087.5255C785.6138,1087.6652,791.91833,1100.8431,799.6366,1116.8378L813.64844,1145.9254L872.2837,1117.826L930.905,1089.7026L916.80396,1060.3683L902.7018,1031.0332L844.1726,1059.1691C816.81055,1072.3217,793.67566,1083.5056,787.32825,1086.6467 Z M811.65356,1089.247L849.74194,1070.9362L887.8312,1052.6268L811.65356,1089.247 Z M865.47266,1102.994C865.4535,1103.0032,865.4348,1103.0127,865.4148,1103.0217C865.39624,1103.0311,865.3777,1103.0409,865.3585,1103.0504 Z M828.69275,1124.3926L904.79956,1087.806L866.73535,1106.1047L828.69275,1124.3926 Z"/> </g> <g style="fill:rgb(38,120,95); fill-opacity:1.0; stroke-linejoin: miter"> <path d="M784.00916,1086.2291C784.0189,1086.3685,790.3237,1099.5457,798.04236,1115.5409L812.0543,1144.6289L870.6891,1116.5297L929.31104,1088.4061L915.2096,1059.0724L901.10815,1029.7378L842.5791,1057.8726C810.3811,1073.3499,784.0354,1086.1012,784.00916,1086.2291 Z M887.1493,1052.5671C889.0082,1055.1124,891.38696,1056.453,894.5154,1056.7119C895.6559,1056.7996,896.76306,1056.6998,897.6416,1056.424C898.3804,1056.1547,899.1033,1056.0388,899.2296,1056.1218C899.7268,1056.4323,907.71326,1073.0477,907.54553,1073.4181C907.449,1073.5789,906.8948,1074.0475,906.3063,1074.4462C904.89343,1075.3553,903.1659,1077.8328,902.68286,1079.5942C902.2245,1081.4048,902.24927,1083.5602,902.77185,1085.1871L903.2052,1086.5094L865.14136,1104.8094L827.0996,1123.0964L826.0504,1121.6941C825.48035,1120.9272,824.6332,1120.0063,824.1721,1119.6509C821.9962,1118.0083,818.2932,1117.2186,815.9408,1117.9146C815.3917,1118.0924,814.6787,1118.2908,814.3624,1118.3558L813.77783,1118.5215L809.60425,1109.8384C804.9336,1100.1224,805.1963,1101.2101,807.13904,1099.9004C808.527,1098.9445,809.7523,1097.2278,810.4353,1095.2822C811.1664,1093.1964,811.14294,1090.2034,810.3878,1088.6306L810.0608,1087.9503L848.14905,1069.6401L886.23755,1051.3313L887.1493,1052.5671 Z"/> </g> <g style="fill:rgb(38,120,95); fill-opacity:1.0; stroke-linejoin: miter"> <path d="M847.1482,1074.05C844.7573,1075.8052,842.68823,1078.4763,841.60925,1081.2196C840.57776,1083.8828,840.28723,1086.1017,840.5449,1089.0406C840.7114,1091.0707,840.8562,1091.4923,842.15344,1094.1915C843.417,1096.8201,843.7252,1097.2784,845.06714,1098.5692C847.95764,1101.3972,851.42676,1103.0234,855.1478,1103.3726C862.1952,1104.0286,869.1437,1099.7924,871.68994,1093.3113C874.66174,1085.7286,871.8927,1077.3815,865.0148,1073.2919C859.5088,1070.0135,852.23755,1070.3319,847.1482,1074.05 Z"/> </g> <g style="fill:rgb(42,175,134); fill-opacity:1.0; stroke-linejoin: miter"> <path d="M849.522,1072.6316C854.33777,1070.3156,860.31836,1070.4966,865.0148,1073.2919C871.8927,1077.3815,874.66174,1085.7286,871.68994,1093.3113C870.2119,1097.0724,867.2527,1100.0785,863.65063,1101.8093C861.046,1103.0615,858.1051,1103.6473,855.1478,1103.3726C851.42676,1103.0234,847.95764,1101.3972,845.06714,1098.5692C843.7252,1097.2784,843.417,1096.8201,842.15344,1094.1915C840.8562,1091.4923,840.7114,1091.0707,840.5449,1089.0406C840.28723,1086.1017,840.57776,1083.8828,841.60925,1081.2196C842.68823,1078.4763,844.7573,1075.8052,847.1482,1074.05C847.8967,1073.5035,848.6926,1073.031,849.522,1072.6316 Z M810.0608,1087.9503L810.3878,1088.6306C811.14294,1090.2034,811.1664,1093.1964,810.4353,1095.2822C809.7523,1097.2278,808.527,1098.9445,807.13904,1099.9004C805.1963,1101.2101,804.9336,1100.1224,809.60425,1109.8384L813.77783,1118.5215L814.3624,1118.3558C814.6787,1118.2908,815.3917,1118.0924,815.9408,1117.9146C818.2932,1117.2186,821.9962,1118.0083,824.1721,1119.6509C824.6332,1120.0063,825.48035,1120.9272,826.0504,1121.6941L827.0996,1123.0964L903.2052,1086.5094L902.77185,1085.1871C902.24927,1083.5602,902.2245,1081.4048,902.68286,1079.5942C903.1659,1077.8328,904.89343,1075.3553,906.3063,1074.4462C906.8948,1074.0475,907.449,1073.5789,907.54553,1073.4181C907.71326,1073.0477,899.7268,1056.4323,899.2296,1056.1218C899.1033,1056.0388,898.3804,1056.1547,897.6416,1056.424C896.76306,1056.6998,895.6559,1056.7996,894.5154,1056.7119C891.38696,1056.453,889.0082,1055.1124,887.1493,1052.5671L886.23755,1051.3313 Z"/> </g> <g style="fill:rgb(18,91,69); fill-opacity:1.0; stroke-linejoin: miter"> <path d="M854.2883,1073.4023L854.2883,1075.7766Q852.3037,1076.5918,851.06335,1078.3636Q849.823,1080.1357,849.823,1082.4039Q849.823,1083.8569,850.39014,1085.1681Q850.95703,1086.4438,851.91394,1087.4008Q852.87085,1088.3577,854.182,1088.9244Q855.45776,1089.4917,856.9109,1089.4917L857.12354,1089.4918Q857.5488,1089.5627,857.8324,1089.8815Q858.11584,1090.2004,858.11584,1090.6611Q858.11584,1091.1573,857.7615,1091.5117Q857.407,1091.8661,856.9109,1091.8661Q856.4147,1091.8661,856.0603,1091.5117Q855.70593,1091.1572,855.70593,1090.6611L849.823,1090.6611Q849.823,1091.7952,850.17737,1092.823Q850.49634,1093.8153,851.09875,1094.7013Q851.6659,1095.5519,852.48096,1096.2252Q853.296,1096.8632,854.2883,1097.253L854.2883,1099.9464L860.2422,1099.9467L860.2422,1096.9341Q861.94324,1096.0125,862.97095,1094.3468Q863.99854,1092.7166,863.99866,1090.6611Q863.99866,1089.208,863.43164,1087.897Q862.8646,1086.6212,861.9077,1085.6642Q860.9509,1084.7074,859.63965,1084.1403Q858.3639,1083.5735,856.9109,1083.5735L856.69824,1083.5737Q856.27295,1083.5024,855.9895,1083.1482Q855.70593,1082.8291,855.70593,1082.4039Q855.70593,1081.9078,856.0603,1081.5178Q856.41455,1081.1635,856.91077,1081.1635Q857.40686,1081.1635,857.7615,1081.5533Q858.11584,1081.9078,858.11584,1082.4039L863.99866,1082.404Q863.99866,1080.3484,862.97095,1078.6829Q861.94324,1077.017,860.2422,1076.0957L860.2422,1073.4025 Z"/> </g> <g style="fill:rgb(42,175,134); fill-opacity:1.0; stroke-linejoin: miter"> <path d="M853.7898,1073.7L853.7898,1076.0742Q851.8052,1076.8894,850.5647,1078.6615Q849.32434,1080.4332,849.32434,1082.7014Q849.32434,1084.1543,849.89136,1085.4657Q850.4584,1086.7415,851.4153,1087.6982Q852.3722,1088.6553,853.68335,1089.222Q854.9592,1089.7893,856.41223,1089.7893L856.625,1089.7896Q857.05005,1089.8601,857.33374,1090.1791Q857.6172,1090.4982,857.6172,1090.9589Q857.6172,1091.455,857.2628,1091.8093Q856.90845,1092.1636,856.41223,1092.1636Q855.91614,1092.1636,855.56165,1091.8093Q855.2073,1091.455,855.2073,1090.9589L849.32434,1090.9587Q849.32434,1092.0928,849.6787,1093.1206Q849.9977,1094.1129,850.6002,1094.9989Q851.1671,1095.8494,851.9823,1096.5228Q852.79736,1097.1608,853.7898,1097.5505L853.7898,1100.2439L859.7435,1100.2443L859.7435,1097.2316Q861.4446,1096.31,862.4723,1094.6444Q863.5,1093.0144,863.5,1090.959Q863.5,1089.506,862.9331,1088.1946Q862.3661,1086.9187,861.4092,1085.9618Q860.4523,1085.0049,859.141,1084.4379Q857.86536,1083.8711,856.41223,1083.8711L856.1996,1083.8712Q855.7743,1083.8002,855.49084,1083.4458Q855.2073,1083.1268,855.2073,1082.7015Q855.2073,1082.2053,855.56165,1081.8156Q855.91614,1081.4612,856.41223,1081.4612Q856.90845,1081.4612,857.2628,1081.8511Q857.6172,1082.2054,857.6172,1082.7015L863.5,1082.7017Q863.5,1080.646,862.4723,1078.9802Q861.4446,1077.3146,859.7435,1076.3934L859.7435,1073.7 Z"/> </g> <g style="fill:rgb(38,120,95); fill-opacity:1.0; stroke-linejoin: miter"> <path d="M797.1791,1082.2599C795.92737,1082.2767,795.2566,1082.2922,795.24536,1082.3081C795.1931,1082.438,795.18884,1097.0464,795.2434,1114.806L795.32043,1147.0925L860.34094,1147.0685L925.3594,1147.017L925.3081,1114.4694L925.2562,1081.9207L860.3159,1082.0232C829.9569,1082.0707,804.2606,1082.1676,797.1791,1082.2599 Z M817.9966,1095.1094L860.2577,1095.0415L902.5189,1094.9755L817.9966,1095.1094 Z M860.6028,1130.7493C860.58154,1130.7494,860.56067,1130.7498,860.5387,1130.7495C860.51794,1130.7496,860.49695,1130.7507,860.47546,1130.751 Z M818.18835,1134.1672L902.6323,1134.0327L860.39844,1134.1006L818.18835,1134.1672 Z"/> </g> <g style="fill:rgb(38,120,95); fill-opacity:1.0; stroke-linejoin: miter"> <path d="M794.36584,1080.4498C794.31445,1080.5798,794.3109,1095.1874,794.36536,1112.9479L794.4426,1145.2345L859.4625,1145.2104L924.4813,1145.159L924.4297,1112.6117L924.3783,1080.064L859.4385,1080.1654C823.71387,1080.2217,794.4447,1080.3457,794.36584,1080.4498 Z M901.9297,1094.627C902.5073,1097.7258,904.07385,1099.962,906.78394,1101.5465C907.77454,1102.118,908.81616,1102.5062,909.7278,1102.6367C910.5104,1102.7128,911.2125,1102.9205,911.29065,1103.0499C911.605,1103.5448,911.6332,1121.98,911.32227,1122.2413C911.1655,1122.3446,910.46326,1122.528,909.7604,1122.6335C908.0936,1122.8435,905.46545,1124.3319,904.2694,1125.7122C903.074,1127.147,902.16565,1129.1022,901.9343,1130.7953L901.7543,1132.1748L859.52,1132.2438L817.31104,1132.31L816.97034,1130.5923C816.78735,1129.6544,816.4209,1128.458,816.15857,1127.9382C814.9054,1125.5173,811.9065,1123.2058,809.484,1122.8176C808.912,1122.741,808.1832,1122.612,807.86975,1122.5342L807.271,1122.4309L807.2565,1112.7971C807.23914,1102.0168,807.0065,1103.1113,809.32434,1102.7689C810.989,1102.5059,812.83545,1101.4867,814.29175,1100.0269C815.8519,1098.4614,817.12317,1095.7516,817.1212,1094.0068L817.1201,1093.2523L859.3806,1093.1846L901.641,1093.1189L901.9297,1094.627 Z"/> </g> <g style="fill:rgb(38,120,95); fill-opacity:1.0; stroke-linejoin: miter"> <path d="M856.5737,1096.7302C853.6593,1097.2808,850.6398,1098.797,848.48206,1100.8049C846.40137,1102.7615,845.1813,1104.6377,844.14465,1107.3994C843.4181,1109.3025,843.3666,1109.7452,843.3711,1112.74C843.3755,1115.6562,843.4557,1116.2028,844.10864,1117.9464C845.4944,1121.7455,847.92126,1124.7103,851.1267,1126.632C857.19995,1130.267,865.29626,1129.447,870.3917,1124.7007C876.34656,1119.1447,877.4535,1110.4203,873.01587,1103.7614C869.4656,1098.427,862.7698,1095.5741,856.5737,1096.7302 Z"/> </g> <g style="fill:rgb(42,175,134); fill-opacity:1.0; stroke-linejoin: miter"> <path d="M859.3273,1096.4756C864.671,1096.4664,869.9872,1099.2122,873.01587,1103.7614C877.4535,1110.4203,876.34656,1119.1447,870.3917,1124.7007C867.43445,1127.455,863.46716,1128.8884,859.47107,1128.894C856.58093,1128.8984,853.6753,1128.157,851.1267,1126.632C847.92126,1124.7103,845.4944,1121.7455,844.10864,1117.9464C843.4557,1116.2028,843.3755,1115.6562,843.3711,1112.74C843.3666,1109.7452,843.4181,1109.3025,844.14465,1107.3994C845.1813,1104.6377,846.40137,1102.7615,848.48206,1100.8049C850.6398,1098.797,853.6593,1097.2808,856.5737,1096.7302C857.48486,1096.5605,858.40686,1096.4779,859.3273,1096.4756 Z M817.1201,1093.2523L817.1212,1094.0068C817.12317,1095.7516,815.8519,1098.4614,814.29175,1100.0269C812.83545,1101.4867,810.989,1102.5059,809.32434,1102.7689C807.0065,1103.1113,807.23914,1102.0168,807.2565,1112.7971L807.271,1122.4309L807.86975,1122.5342C808.1832,1122.612,808.912,1122.741,809.484,1122.8176C811.9065,1123.2058,814.9054,1125.5173,816.15857,1127.9382C816.4209,1128.458,816.78735,1129.6544,816.97034,1130.5923L817.31104,1132.31L901.7543,1132.1748L901.9343,1130.7953C902.16565,1129.1022,903.074,1127.147,904.2694,1125.7122C905.46545,1124.3319,908.0936,1122.8435,909.7604,1122.6335C910.46326,1122.528,911.1655,1122.3446,911.32227,1122.2413C911.6332,1121.98,911.605,1103.5448,911.29065,1103.0499C911.2125,1102.9205,910.5104,1102.7128,909.7278,1102.6367C908.81616,1102.5062,907.77454,1102.118,906.78394,1101.5465C904.07385,1099.962,902.5073,1097.7258,901.9297,1094.627L901.641,1093.1189 Z"/> </g> <g style="fill:rgb(18,91,69); fill-opacity:1.0; stroke-linejoin: miter"> <path d="M857.46484,1099.5669L857.46484,1101.9412Q855.4802,1102.7563,854.23987,1104.5284Q852.9994,1106.3003,852.9994,1108.5685Q852.9994,1110.0214,853.5665,1111.3328Q854.13354,1112.6085,855.09033,1113.5653Q856.04724,1114.5223,857.3585,1115.0892Q858.6344,1115.6565,860.0873,1115.6564L860.2999,1115.6566Q860.7252,1115.7272,861.0088,1116.0461Q861.29224,1116.3651,861.29224,1116.8258Q861.29224,1117.3219,860.93787,1117.6764Q860.5835,1118.0306,860.0873,1118.0305Q859.5912,1118.0305,859.2368,1117.6763Q858.8823,1117.3218,858.8823,1116.8257L852.9995,1116.826Q852.9995,1117.9598,853.3539,1118.9875Q853.6727,1119.9797,854.27515,1120.8657Q854.84216,1121.7163,855.65735,1122.3896Q856.47253,1123.0275,857.46484,1123.4174L857.46484,1126.1108L863.4187,1126.111L863.4187,1123.0985Q865.1195,1122.177,866.14734,1120.5114Q867.1752,1118.8812,867.1752,1116.8257Q867.1752,1115.3728,866.60803,1114.0614Q866.04114,1112.7856,865.0842,1111.8287Q864.1273,1110.8718,862.81604,1110.3049Q861.5403,1109.7379,860.0873,1109.7379L859.87463,1109.7382Q859.44946,1109.667,859.1658,1109.3126Q858.8823,1108.9937,858.8823,1108.5685Q858.8823,1108.0723,859.2368,1107.6824Q859.5912,1107.328,860.0873,1107.328Q860.5834,1107.328,860.93787,1107.7179Q861.29224,1108.0723,861.29224,1108.5686L867.17505,1108.5686Q867.17505,1106.513,866.14746,1104.8474Q865.1196,1103.1815,863.4186,1102.2601L863.4186,1099.5669 Z"/> </g> <g style="fill:rgb(42,175,134); fill-opacity:1.0; stroke-linejoin: miter"> <path d="M856.9662,1099.8645L856.9662,1102.2389Q854.98157,1103.0541,853.7411,1104.8259Q852.50073,1106.5979,852.50073,1108.8661Q852.50073,1110.319,853.0679,1111.6305Q853.6349,1112.9061,854.5917,1113.863Q855.5486,1114.8198,856.85986,1115.387Q858.1356,1115.954,859.58875,1115.9539L859.8013,1115.954Q860.22656,1116.0248,860.51013,1116.3436Q860.7936,1116.6626,860.7936,1117.1235Q860.7936,1117.6196,860.4392,1117.9739Q860.08484,1118.3282,859.5886,1118.3282Q859.0925,1118.3282,858.73816,1117.9739Q858.3838,1117.6196,858.3838,1117.1235L852.50085,1117.1237Q852.50085,1118.2576,852.8552,1119.2853Q853.1742,1120.2775,853.7766,1121.1633Q854.3436,1122.014,855.1587,1122.6873Q855.9739,1123.3252,856.9662,1123.715L856.9662,1126.4084L862.9199,1126.4086L862.9199,1123.3961Q864.621,1122.4746,865.6487,1120.8091Q866.6764,1119.1788,866.6765,1117.1234Q866.6765,1115.6705,866.1095,1114.3593Q865.5425,1113.0833,864.5856,1112.1265Q863.6288,1111.1697,862.3175,1110.6025Q861.0416,1110.0355,859.58875,1110.0355L859.376,1110.0358Q858.9508,1109.9647,858.66724,1109.6102Q858.38367,1109.2913,858.38367,1108.866Q858.38367,1108.3699,858.73804,1107.9801Q859.0925,1107.6256,859.5886,1107.6256Q860.08484,1107.6256,860.4392,1108.0155Q860.7936,1108.3699,860.7936,1108.8661L866.6764,1108.8661Q866.6764,1106.8105,865.6488,1105.145Q864.621,1103.4792,862.9199,1102.5579L862.9199,1099.8645 Z"/> </g> <g style="fill:rgb(253,217,8); fill-opacity:1.0; stroke-linejoin: miter"> <path d="M749.93005,1119.9614L750.15735,1115.7322Q752.0067,1102.934,761.7103,1095.1458Q771.48193,1087.3617,784.88245,1088.6278Q797.6804,1090.4769,805.469,1100.1803Q807.96484,1103.3173,809.60364,1107.0347L810.99,1110.8599Q812.1433,1114.8118,812.2134,1119.1235Q812.057,1132.3615,803.3876,1141.2673Q794.7184,1150.1725,781.4895,1150.6846Q768.2517,1150.5281,759.34644,1141.8591Q750.4414,1133.1901,749.93005,1119.9614 Z"/> </g> <g style="fill:rgb(238,170,1); fill-opacity:1.0; stroke-linejoin: miter"> <path d="M754.8036,1119.8173L754.996,1116.2498Q756.556,1105.4548,764.7407,1098.885Q772.98303,1092.3196,784.2865,1093.3877Q795.08105,1094.9474,801.6509,1103.1326Q803.75574,1105.7789,805.1377,1108.9136L806.3076,1112.1404Q807.28015,1115.4733,807.33936,1119.1107Q807.20776,1130.2769,799.8949,1137.7885Q792.58276,1145.3004,781.42395,1145.7323Q770.2583,1145.6002,762.7468,1138.2882Q755.2355,1130.9756,754.8036,1119.8173 Z"/> </g> <g style="fill:rgb(255,183,13); fill-opacity:1.0; stroke-linejoin: miter"> <path d="M755.4457,1119.7988L755.6332,1116.3186Q757.1553,1105.7874,765.1399,1099.378Q773.1808,1092.973,784.208,1094.0149Q794.7388,1095.5365,801.14795,1103.5216Q803.20154,1106.1033,804.5498,1109.1614L805.69104,1112.3094Q806.6399,1115.5609,806.69763,1119.1094Q806.5691,1130.0027,799.4352,1137.3308Q792.3015,1144.659,781.4154,1145.0804Q770.5226,1144.9515,763.1947,1137.8181Q755.86694,1130.6842,755.4457,1119.7988 Z"/> </g> <g style="fill:rgb(238,170,1); fill-opacity:1.0; stroke-linejoin: miter"> <path d="M778.7079,1105.3322L778.7079,1107.9734Q776.5001,1108.8802,775.12036,1110.8516Q773.7406,1112.8225,773.7406,1115.3456Q773.7406,1116.9619,774.37134,1118.4208Q775.0021,1119.84,776.0665,1120.9043Q777.13086,1121.9686,778.5896,1122.5995Q780.0088,1123.2303,781.6251,1123.2301L781.8616,1123.2303Q782.3347,1123.309,782.65015,1123.6638Q782.9656,1124.0187,782.9656,1124.5311Q782.9657,1125.0834,782.5713,1125.4774Q782.1771,1125.8717,781.62524,1125.8716Q781.07324,1125.8716,780.6791,1125.4773Q780.2848,1125.0833,780.2848,1124.5312L773.7405,1124.5314Q773.7406,1125.7928,774.13477,1126.936Q774.4895,1128.0399,775.1598,1129.0255Q775.7905,1129.9716,776.69727,1130.7206Q777.604,1131.4303,778.7079,1131.864L778.7079,1134.8601L785.33093,1134.8601L785.33093,1131.509Q787.22327,1130.4841,788.3666,1128.6312Q789.50977,1126.8177,789.50977,1124.5311Q789.50977,1122.9148,788.879,1121.456Q788.24817,1120.0367,787.18384,1118.9724Q786.1194,1117.9081,784.66077,1117.2772Q783.2416,1116.6465,781.6251,1116.6465L781.3887,1116.6469Q780.91565,1116.5677,780.6002,1116.1737Q780.2848,1115.8187,780.2848,1115.3457Q780.2848,1114.7937,780.6791,1114.3601Q781.07336,1113.9658,781.6251,1113.9657Q782.1771,1113.9658,782.5713,1114.3994Q782.9656,1114.7937,782.9656,1115.3456L789.50977,1115.3457Q789.50977,1113.059,788.3666,1111.2062Q787.22314,1109.3531,785.33093,1108.3282L785.33093,1105.3322 Z"/> </g> <g style="fill:rgb(253,217,8); fill-opacity:1.0; stroke-linejoin: miter"> <path d="M778.1532,1105.6632L778.1532,1108.3044Q775.94543,1109.2113,774.5657,1111.1825Q773.1858,1113.1536,773.1858,1115.6766Q773.1858,1117.293,773.81665,1118.7518Q774.4474,1120.171,775.51184,1121.2355Q776.5762,1122.2997,778.0349,1122.9304Q779.4541,1123.5613,781.07056,1123.5613L781.307,1123.5616Q781.78,1123.6399,782.09546,1123.995Q782.4109,1124.3497,782.4109,1124.8622Q782.4109,1125.4143,782.0167,1125.8086Q781.62244,1126.2026,781.07056,1126.2026Q780.51855,1126.2026,780.12427,1125.8086Q779.7301,1125.4142,779.7301,1124.8623L773.1858,1124.8624Q773.1859,1126.1239,773.5801,1127.2672Q773.93494,1128.371,774.6051,1129.3564Q775.2357,1130.3026,776.1426,1131.0516Q777.0493,1131.7614,778.1532,1132.195L778.1532,1135.1913L784.77625,1135.1913L784.77625,1131.8402Q786.6686,1130.8152,787.8119,1128.9623Q788.9552,1127.149,788.9551,1124.8622Q788.9551,1123.2458,788.32434,1121.7871Q787.6935,1120.3679,786.62915,1119.3036Q785.5648,1118.2391,784.1062,1117.6083Q782.6869,1116.9775,781.07056,1116.9777L780.834,1116.9779Q780.36096,1116.8988,780.04553,1116.5046Q779.7301,1116.1498,779.7301,1115.6766Q779.7301,1115.1248,780.1244,1114.6912Q780.5187,1114.2968,781.07056,1114.2968Q781.6223,1114.2966,782.0166,1114.7305Q782.4109,1115.1248,782.4109,1115.6766L788.9551,1115.6768Q788.9551,1113.3903,787.8119,1111.5372Q786.66846,1109.6842,784.77625,1108.6592L784.77625,1105.663 Z"/> </g> <g style="fill:rgb(38,120,95); fill-opacity:1.0; stroke-linejoin: miter"> <path d="M175.77274,1110.4653C175.07907,1111.5074,174.71278,1112.0697,174.71957,1112.0879C174.79712,1112.2043,186.84615,1120.4647,201.52759,1130.4572L228.20612,1148.642L264.93607,1094.9895L301.64224,1041.3231L274.76315,1022.9696L247.88272,1004.6156L211.26268,1058.2467C194.14278,1083.3182,179.6992,1104.5712,175.77274,1110.4653 Z M198.13928,1100.5543L221.96936,1065.6526L245.80096,1030.7517L198.13928,1100.5543 Z M251.62149,1085.5502C251.6095,1085.5676,251.59814,1085.5852,251.58539,1085.603C251.57376,1085.6204,251.56277,1085.6382,251.5509,1085.656 Z M230.46849,1122.4718L278.0857,1052.7334L254.27063,1087.6128L230.46849,1122.4718 Z"/> </g> <g style="fill:rgb(38,120,95); fill-opacity:1.0; stroke-linejoin: miter"> <path d="M172.68942,1111.763C172.76753,1111.8789,184.8163,1120.1382,199.49844,1130.1311L226.17729,1148.3159L262.90686,1094.6641L299.6135,1040.9974L272.7343,1022.6444L245.85483,1004.2904L209.23428,1057.9205C189.08885,1087.4235,172.64828,1111.639,172.68942,1111.763 Z M245.18079,1031.0409C248.06326,1032.3157,250.79364,1032.2874,253.63248,1030.9473C254.664,1030.453,255.5729,1029.813,256.1957,1029.1348C256.70087,1028.5322,257.2691,1028.0706,257.41986,1028.0791C258.00577,1028.0994,273.23016,1038.4956,273.26978,1038.9C273.26657,1039.0875,273.0209,1039.7705,272.71057,1040.4102C271.94177,1041.9037,271.68442,1044.9131,272.14697,1046.6802C272.65506,1048.4772,273.75424,1050.3315,275.02023,1051.4792L276.0566,1052.4076L252.2425,1087.288L228.4406,1122.1459L226.83075,1121.456C225.95361,1121.0768,224.7596,1120.703,224.18256,1120.6259C221.47685,1120.2913,217.87515,1121.4586,216.18587,1123.2375C215.79929,1123.666,215.28104,1124.1945,215.03958,1124.4089L214.61613,1124.8446L206.66008,1119.4117C197.75728,1113.3329,198.52861,1114.1434,199.55621,1112.0377C200.2802,1110.5161,200.48291,1108.4166,200.10185,1106.3903C199.69211,1104.2184,198.1752,1101.6378,196.7349,1100.6533L196.11163,1100.2278L219.94179,1065.3265L243.77325,1030.4265L245.18079,1031.0409 Z"/> </g> <g style="fill:rgb(38,120,95); fill-opacity:1.0; stroke-linejoin: miter"> <path d="M221.28004,1069.6461C220.08698,1072.3613,219.63095,1075.7095,220.06813,1078.6245C220.50633,1081.447,221.36432,1083.5139,223.05669,1085.9298C224.21603,1087.6051,224.5523,1087.8977,227.0253,1089.5865C229.43373,1091.2313,229.9297,1091.4739,231.73723,1091.9208C235.65454,1092.9248,239.47212,1092.5985,242.86911,1091.0404C249.30048,1088.0846,253.19989,1080.9419,252.16461,1074.056C250.94669,1066.0033,244.37534,1060.1592,236.37387,1060.0563C229.96637,1059.9701,223.8285,1063.8813,221.28004,1069.6461 Z"/> </g> <g style="fill:rgb(42,175,134); fill-opacity:1.0; stroke-linejoin: miter"> <path d="M222.62646,1067.2308C225.63913,1062.8171,230.90901,1059.9834,236.37387,1060.0563C244.37534,1060.1592,250.94669,1066.0033,252.16461,1074.056C252.76514,1078.0522,251.70544,1082.1354,249.45117,1085.4349C247.82156,1087.8217,245.5676,1089.7996,242.86911,1091.0404C239.47212,1092.5985,235.65454,1092.9248,231.73723,1091.9208C229.9297,1091.4739,229.43373,1091.2313,227.0253,1089.5865C224.5523,1087.8977,224.21603,1087.6051,223.05669,1085.9298C221.36432,1083.5139,220.50633,1081.447,220.06813,1078.6245C219.63095,1075.7095,220.08698,1072.3613,221.28004,1069.6461C221.65506,1068.7985,222.1082,1067.9915,222.62646,1067.2308 Z M196.11163,1100.2278L196.7349,1100.6533C198.1752,1101.6378,199.69211,1104.2184,200.10185,1106.3903C200.48291,1108.4166,200.2802,1110.5161,199.55621,1112.0377C198.52861,1114.1434,197.75728,1113.3329,206.66008,1119.4117L214.61613,1124.8446L215.03958,1124.4089C215.28104,1124.1945,215.79929,1123.666,216.18587,1123.2375C217.87515,1121.4586,221.47685,1120.2913,224.18256,1120.6259C224.7596,1120.703,225.95361,1121.0768,226.83075,1121.456L228.4406,1122.1459L276.0566,1052.4076L275.02023,1051.4792C273.75424,1050.3315,272.65506,1048.4772,272.14697,1046.6802C271.68442,1044.9131,271.94177,1041.9037,272.71057,1040.4102C273.0209,1039.7705,273.26657,1039.0875,273.26978,1038.9C273.23016,1038.4956,258.00577,1028.0994,257.41986,1028.0791C257.2691,1028.0706,256.70087,1028.5322,256.1957,1029.1348C255.5729,1029.813,254.664,1030.453,253.63248,1030.9473C250.79364,1032.2874,248.06326,1032.3157,245.18079,1031.0409L243.77325,1030.4265 Z"/> </g> <g style="fill:rgb(18,91,69); fill-opacity:1.0; stroke-linejoin: miter"> <path d="M227.02625,1069.8501L229.08257,1071.0374Q228.79622,1073.1636,229.71054,1075.1238Q230.62492,1077.0839,232.58919,1078.218Q233.8475,1078.9445,235.26665,1079.1091Q236.65508,1079.2559,237.96213,1078.9056Q239.2693,1078.5554,240.4159,1077.7035Q241.54492,1076.8821,242.27148,1075.6238L242.37778,1075.4396Q242.65176,1075.1067,243.06967,1075.0206Q243.48758,1074.9346,243.8866,1075.1648Q244.31638,1075.413,244.44598,1075.8971Q244.57571,1076.3812,244.3276,1076.8109Q244.07956,1077.2406,243.5954,1077.3702Q243.11133,1077.5,242.6818,1077.2521L239.74026,1082.3467Q240.72241,1082.9137,241.78964,1083.1206Q242.80838,1083.3406,243.87692,1083.2618Q244.89706,1083.196,245.88766,1082.8268Q246.84778,1082.44,247.68152,1081.7754L250.0141,1083.1221L252.99103,1077.9661L250.3822,1076.4598Q250.43484,1074.526,249.50613,1072.8031Q248.60822,1071.098,246.82806,1070.0702Q245.56973,1069.3438,244.1506,1069.1791Q242.76224,1069.0321,241.45511,1069.3826Q240.14795,1069.7327,239.0014,1070.5848Q237.87245,1071.4062,237.14589,1072.6644L237.03952,1072.8486Q236.76566,1073.1815,236.31699,1073.2499Q235.899,1073.3359,235.5307,1073.1233Q235.10106,1072.8752,234.94055,1072.3734Q234.81087,1071.8894,235.05879,1071.4596Q235.3069,1071.0299,235.8217,1070.9178Q236.30586,1070.7881,236.73552,1071.0363L239.67715,1065.9417Q237.89694,1064.914,235.94052,1064.9711Q233.98428,1065.0282,232.33568,1066.0408L230.00311,1064.6938 Z"/> </g> <g style="fill:rgb(42,175,134); fill-opacity:1.0; stroke-linejoin: miter"> <path d="M227.03465,1070.4309L229.09099,1071.6179Q228.80464,1073.7443,229.71901,1075.7045Q230.63339,1077.6647,232.59761,1078.7987Q233.85593,1079.5251,235.27513,1079.6897Q236.66356,1079.8367,237.97054,1079.4863Q239.27765,1079.1361,240.42432,1078.2839Q241.55334,1077.4626,242.27988,1076.2043L242.3862,1076.0203Q242.66019,1075.6874,243.07803,1075.6013Q243.49606,1075.5153,243.89508,1075.7456Q244.32468,1075.9938,244.4544,1076.4778Q244.58414,1076.9618,244.33609,1077.3916Q244.08798,1077.8212,243.60388,1077.951Q243.11978,1078.0807,242.69019,1077.8325L239.74869,1082.9274Q240.73083,1083.4943,241.79803,1083.7013Q242.81686,1083.9211,243.88535,1083.8423Q244.90549,1083.7766,245.89615,1083.4075Q246.85611,1083.0204,247.68994,1082.3561L250.02246,1083.7028L252.99933,1078.5465L250.39062,1077.0403Q250.44318,1075.1066,249.51462,1073.3838Q248.61661,1071.6786,246.83646,1070.6508Q245.57816,1069.9243,244.15909,1069.7598Q242.77069,1069.6129,241.46353,1069.9631Q240.15642,1070.3134,239.00983,1071.1654Q237.88094,1071.9868,237.15443,1073.2452L237.04813,1073.4294Q236.77408,1073.7623,236.32545,1073.8306Q235.90742,1073.9167,235.53912,1073.704Q235.10947,1073.456,234.94902,1072.9541Q234.81929,1072.4701,235.0672,1072.0402Q235.3153,1071.6105,235.83012,1071.4985Q236.31429,1071.3688,236.74394,1071.617L239.68552,1066.5222Q237.90543,1065.4945,235.94893,1065.5515Q233.99263,1065.609,232.34416,1066.6213L230.01158,1065.2747 Z"/> </g> <g style="fill:rgb(38,120,95); fill-opacity:1.0; stroke-linejoin: miter"> <path d="M199.57907,1092.7812C198.45728,1093.3372,197.85895,1093.6409,197.85568,1093.66C197.86461,1093.7997,204.16919,1106.9777,211.88744,1122.9724L225.89923,1152.06L284.53452,1123.9607L343.15588,1095.8373L329.0548,1066.5029L314.9526,1037.1677L256.42343,1065.3036C229.06142,1078.4563,205.92648,1089.6403,199.57907,1092.7812 Z M223.90443,1095.3816L261.9927,1077.0707L300.08194,1058.7615L223.90443,1095.3816 Z M277.72342,1109.1287C277.70428,1109.1378,277.68564,1109.1473,277.66565,1109.1564C277.647,1109.1656,277.62854,1109.1754,277.60934,1109.185 Z M240.94357,1130.5272L317.05038,1093.9407L278.9862,1112.2394L240.94357,1130.5272 Z"/> </g> <g style="fill:rgb(38,120,95); fill-opacity:1.0; stroke-linejoin: miter"> <path d="M196.25996,1092.3636C196.2697,1092.503,202.57452,1105.6802,210.29317,1121.6755L224.3052,1150.7635L282.93988,1122.6643L341.56186,1094.5408L327.46042,1065.2069L313.35895,1035.8723L254.8299,1064.0071C222.63199,1079.4845,196.28627,1092.2358,196.25996,1092.3636 Z M299.4001,1058.7017C301.259,1061.247,303.63773,1062.5875,306.76627,1062.8466C307.9067,1062.9342,309.01392,1062.8345,309.8924,1062.5586C310.6312,1062.2893,311.3541,1062.1735,311.48044,1062.2563C311.97766,1062.5668,319.96414,1079.1823,319.79642,1079.5527C319.69977,1079.7135,319.14557,1080.182,318.55707,1080.5808C317.14432,1081.49,315.41666,1083.9674,314.9337,1085.7289C314.47534,1087.5394,314.50015,1089.6948,315.02267,1091.3218L315.45602,1092.644L277.39224,1110.9441L239.35043,1129.2311L238.30122,1127.8287C237.73116,1127.0619,236.88403,1126.141,236.42299,1125.7854C234.24702,1124.143,230.54404,1123.3531,228.19162,1124.0491C227.64258,1124.227,226.9296,1124.4254,226.61322,1124.4905L226.02866,1124.6561L221.85513,1115.9729C217.18439,1106.2571,217.44707,1107.3447,219.3898,1106.035C220.7778,1105.079,222.00314,1103.3624,222.68619,1101.4169C223.41725,1099.3309,223.3937,1096.338,222.63864,1094.7651L222.31166,1094.085L260.3998,1075.7747L298.4884,1057.4658L299.4001,1058.7017 Z"/> </g> <g style="fill:rgb(38,120,95); fill-opacity:1.0; stroke-linejoin: miter"> <path d="M259.39905,1080.1847C257.00818,1081.9398,254.93909,1084.611,253.86014,1087.3541C252.82864,1090.0173,252.53809,1092.2363,252.79578,1095.1752C252.96219,1097.2053,253.10709,1097.627,254.40433,1100.3262C255.66779,1102.9547,255.97604,1103.413,257.31796,1104.7039C260.2084,1107.5319,263.67755,1109.158,267.39862,1109.5072C274.44595,1110.1631,281.39444,1105.927,283.9408,1099.4459C286.9125,1091.8632,284.14355,1083.516,277.2656,1079.4265C271.75958,1076.1481,264.48837,1076.4664,259.39905,1080.1847 Z"/> </g> <g style="fill:rgb(42,175,134); fill-opacity:1.0; stroke-linejoin: miter"> <path d="M261.77274,1078.7662C266.5886,1076.4502,272.5692,1076.6311,277.2656,1079.4265C284.14355,1083.516,286.9125,1091.8632,283.9408,1099.4459C282.46274,1103.207,279.50354,1106.2131,275.90146,1107.9438C273.29684,1109.196,270.3559,1109.782,267.39862,1109.5072C263.67755,1109.158,260.2084,1107.5319,257.31796,1104.7039C255.97604,1103.413,255.66779,1102.9547,254.40433,1100.3262C253.10709,1097.627,252.96219,1097.2053,252.79578,1095.1752C252.53809,1092.2363,252.82864,1090.0173,253.86014,1087.3541C254.93909,1084.611,257.00818,1081.9398,259.39905,1080.1847C260.14755,1079.6381,260.9435,1079.1656,261.77274,1078.7662 Z M222.31166,1094.085L222.63864,1094.7651C223.3937,1096.338,223.41725,1099.3309,222.68619,1101.4169C222.00314,1103.3624,220.7778,1105.079,219.3898,1106.035C217.44707,1107.3447,217.18439,1106.2571,221.85513,1115.9729L226.02866,1124.6561L226.61322,1124.4905C226.9296,1124.4254,227.64258,1124.227,228.19162,1124.0491C230.54404,1123.3531,234.24702,1124.143,236.42299,1125.7854C236.88403,1126.141,237.73116,1127.0619,238.30122,1127.8287L239.35043,1129.2311L315.45602,1092.644L315.02267,1091.3218C314.50015,1089.6948,314.47534,1087.5394,314.9337,1085.7289C315.41666,1083.9674,317.14432,1081.49,318.55707,1080.5808C319.14557,1080.182,319.69977,1079.7135,319.79642,1079.5527C319.96414,1079.1823,311.97766,1062.5668,311.48044,1062.2563C311.3541,1062.1735,310.6312,1062.2893,309.8924,1062.5586C309.01392,1062.8345,307.9067,1062.9342,306.76627,1062.8466C303.63773,1062.5875,301.259,1061.247,299.4001,1058.7017L298.4884,1057.4658 Z"/> </g> <g style="fill:rgb(18,91,69); fill-opacity:1.0; stroke-linejoin: miter"> <path d="M266.53918,1079.537L266.53918,1081.9113Q264.55457,1082.7264,263.31415,1084.4983Q262.07385,1086.2703,262.07385,1088.5385Q262.07385,1089.9915,262.6409,1091.3027Q263.2079,1092.5785,264.16473,1093.5354Q265.1216,1094.4922,266.43286,1095.0591Q267.70865,1095.6263,269.16168,1095.6263L269.3744,1095.6265Q269.79965,1095.6973,270.08316,1096.0161Q270.3667,1096.3351,270.3667,1096.7958Q270.3667,1097.292,270.01227,1097.6462Q269.65784,1098.0007,269.16168,1098.0007Q268.66553,1098.0007,268.31113,1097.6462Q267.95682,1097.2919,267.95682,1096.7958L262.0738,1096.7958Q262.0738,1097.9297,262.42816,1098.9576Q262.74716,1099.95,263.3496,1100.8358Q263.9167,1101.6865,264.73178,1102.3597Q265.54688,1102.9978,266.53918,1103.3877L266.53918,1106.0809L272.49298,1106.0812L272.49298,1103.0686Q274.19403,1102.147,275.22174,1100.4814Q276.24942,1098.8512,276.24948,1096.7958Q276.24948,1095.3427,275.6825,1094.0316Q275.11548,1092.7557,274.1586,1091.7988Q273.20172,1090.842,271.89044,1090.2748Q270.61475,1089.708,269.16174,1089.708L268.94913,1089.7083Q268.5238,1089.6371,268.24026,1089.2827Q267.95682,1088.9637,267.95682,1088.5385Q267.95682,1088.0424,268.31113,1087.6525Q268.6654,1087.298,269.16162,1087.298Q269.6577,1087.298,270.01227,1087.688Q270.3667,1088.0424,270.3667,1088.5385L276.24948,1088.5386Q276.24948,1086.483,275.2218,1084.8174Q274.19403,1083.1516,272.49298,1082.2303L272.49298,1079.5371 Z"/> </g> <g style="fill:rgb(42,175,134); fill-opacity:1.0; stroke-linejoin: miter"> <path d="M266.0406,1079.8345L266.0406,1082.2089Q264.05597,1083.0239,262.81555,1084.796Q261.5752,1086.5679,261.5752,1088.836Q261.5752,1090.289,262.14218,1091.6003Q262.70923,1092.8761,263.6661,1093.8329Q264.62302,1094.7899,265.9342,1095.3567Q267.21005,1095.9238,268.6631,1095.9238L268.8758,1095.9242Q269.3009,1095.9948,269.58456,1096.3137Q269.86795,1096.6327,269.86795,1097.0934Q269.86795,1097.5895,269.5136,1097.944Q269.15924,1098.2982,268.6631,1098.2982Q268.16693,1098.2982,267.81244,1097.944Q267.4581,1097.5895,267.4581,1097.0934L261.5752,1097.0933Q261.5752,1098.2274,261.92953,1099.2552Q262.24854,1100.2476,262.851,1101.1335Q263.41794,1101.984,264.23312,1102.6575Q265.04822,1103.2953,266.0406,1103.6852L266.0406,1106.3785L271.9944,1106.3789L271.9944,1103.3662Q273.69534,1102.4447,274.72314,1100.779Q275.75085,1099.149,275.75085,1097.0935Q275.75085,1095.6405,275.18387,1094.3292Q274.61688,1093.0533,273.66,1092.0964Q272.7031,1091.1395,271.39178,1090.5725Q270.11615,1090.0057,268.6631,1090.0057L268.4504,1090.0059Q268.02515,1089.9347,267.74167,1089.5804Q267.4581,1089.2615,267.4581,1088.8362Q267.45816,1088.34,267.8125,1087.9501Q268.16693,1087.5958,268.6631,1087.5958Q269.15924,1087.5958,269.5136,1087.9856Q269.86795,1088.3401,269.86795,1088.8362L275.75085,1088.8363Q275.7508,1086.7805,274.72314,1085.1149Q273.69534,1083.4492,271.99432,1082.528L271.99432,1079.8345 Z"/> </g> <g style="fill:rgb(38,120,95); fill-opacity:1.0; stroke-linejoin: miter"> <path d="M209.4299,1088.3944C208.17818,1088.4113,207.50739,1088.4269,207.4962,1088.4426C207.44395,1088.5725,207.4397,1103.181,207.49426,1120.9407L207.57132,1153.2272L272.59183,1153.203L337.61014,1153.1516L337.55896,1120.604L337.50702,1088.0552L272.5667,1088.1578C242.20773,1088.2053,216.51146,1088.3022,209.4299,1088.3944 Z M230.24745,1101.244L272.50854,1101.176L314.76974,1101.11L230.24745,1101.244 Z M272.85358,1136.8838C272.83234,1136.8839,272.81155,1136.8844,272.78952,1136.8842C272.76874,1136.8843,272.74774,1136.8854,272.7263,1136.8856 Z M230.43916,1140.3019L314.88315,1140.1674L272.64923,1140.2352L230.43916,1140.3019 Z"/> </g> <g style="fill:rgb(38,120,95); fill-opacity:1.0; stroke-linejoin: miter"> <path d="M206.61668,1086.5844C206.5653,1086.7144,206.56174,1101.322,206.61624,1119.0825L206.69348,1151.3691L271.71338,1151.345L336.73212,1151.2937L336.6805,1118.7463L336.62906,1086.1986L271.6893,1086.3C235.96469,1086.3563,206.69556,1086.4802,206.61668,1086.5844 Z M314.1805,1100.7616C314.75818,1103.8604,316.3247,1106.0967,319.03476,1107.6812C320.02536,1108.2526,321.06702,1108.6409,321.97858,1108.7714C322.76123,1108.8474,323.4634,1109.0552,323.54147,1109.1846C323.85583,1109.6793,323.88403,1128.1145,323.57306,1128.3759C323.41638,1128.4791,322.7141,1128.6625,322.01117,1128.7682C320.34448,1128.9781,317.71628,1130.4666,316.52023,1131.8468C315.32486,1133.2816,314.41644,1135.2368,314.18515,1136.9299L314.00507,1138.3094L271.7708,1138.3784L229.5619,1138.4447L229.22116,1136.7268C229.03818,1135.7891,228.67169,1134.5927,228.4094,1134.0729C227.15616,1131.6519,224.15732,1129.3405,221.73488,1128.9523C221.16286,1128.8755,220.43405,1128.7467,220.12057,1128.6688L219.5218,1128.5656L219.5073,1118.9316C219.48996,1108.1514,219.25725,1109.246,221.57518,1108.9036C223.23979,1108.6405,225.08633,1107.6212,226.54257,1106.1615C228.10269,1104.596,229.37395,1101.8862,229.37207,1100.1415L229.37094,1099.3868L271.63147,1099.3192L313.89185,1099.2535L314.1805,1100.7616 Z"/> </g> <g style="fill:rgb(38,120,95); fill-opacity:1.0; stroke-linejoin: miter"> <path d="M268.82452,1102.8647C265.91016,1103.4154,262.8906,1104.9315,260.73288,1106.9396C258.6522,1108.896,257.43213,1110.7722,256.39548,1113.534C255.66885,1115.437,255.61743,1115.8799,255.62189,1118.8745C255.62634,1121.7908,255.70654,1122.3374,256.35944,1124.081C257.74524,1127.8801,260.17206,1130.845,263.3775,1132.7665C269.45074,1136.4016,277.5471,1135.5815,282.6426,1130.8353C288.59735,1125.2793,289.7043,1116.5548,285.26672,1109.896C281.71634,1104.5615,275.02054,1101.7087,268.82452,1102.8647 Z"/> </g> <g style="fill:rgb(42,175,134); fill-opacity:1.0; stroke-linejoin: miter"> <path d="M271.5781,1102.6102C276.9219,1102.6011,282.23807,1105.3468,285.26672,1109.896C289.7043,1116.5548,288.59735,1125.2793,282.6426,1130.8353C279.68527,1133.5895,275.71796,1135.0231,271.72183,1135.0286C268.83176,1135.033,265.92618,1134.2916,263.3775,1132.7665C260.17206,1130.845,257.74524,1127.8801,256.35944,1124.081C255.70654,1122.3374,255.62634,1121.7908,255.62189,1118.8745C255.61743,1115.8799,255.66885,1115.437,256.39548,1113.534C257.43213,1110.7722,258.6522,1108.896,260.73288,1106.9396C262.8906,1104.9315,265.91016,1103.4154,268.82452,1102.8647C269.73572,1102.6951,270.65768,1102.6124,271.5781,1102.6102 Z M229.37094,1099.3868L229.37207,1100.1415C229.37395,1101.8862,228.10269,1104.596,226.54257,1106.1615C225.08633,1107.6212,223.23979,1108.6405,221.57518,1108.9036C219.25725,1109.246,219.48996,1108.1514,219.5073,1118.9316L219.5218,1128.5656L220.12057,1128.6688C220.43405,1128.7467,221.16286,1128.8755,221.73488,1128.9523C224.15732,1129.3405,227.15616,1131.6519,228.4094,1134.0729C228.67169,1134.5927,229.03818,1135.7891,229.22116,1136.7268L229.5619,1138.4447L314.00507,1138.3094L314.18515,1136.9299C314.41644,1135.2368,315.32486,1133.2816,316.52023,1131.8468C317.71628,1130.4666,320.34448,1128.9781,322.01117,1128.7682C322.7141,1128.6625,323.41638,1128.4791,323.57306,1128.3759C323.88403,1128.1145,323.85583,1109.6793,323.54147,1109.1846C323.4634,1109.0552,322.76123,1108.8474,321.97858,1108.7714C321.06702,1108.6409,320.02536,1108.2526,319.03476,1107.6812C316.3247,1106.0967,314.75818,1103.8604,314.1805,1100.7616L313.89185,1099.2535 Z"/> </g> <g style="fill:rgb(18,91,69); fill-opacity:1.0; stroke-linejoin: miter"> <path d="M269.7156,1105.7014L269.7156,1108.0758Q267.73105,1108.891,266.49063,1110.663Q265.2502,1112.4348,265.2502,1114.7031Q265.2502,1116.1559,265.8174,1117.4674Q266.38434,1118.7432,267.34116,1119.7Q268.29813,1120.657,269.60938,1121.2239Q270.88525,1121.791,272.33813,1121.7909L272.55075,1121.7911Q272.976,1121.8618,273.2596,1122.1808Q273.54306,1122.4996,273.54306,1122.9604Q273.54306,1123.4565,273.18866,1123.811Q272.83435,1124.1653,272.33813,1124.1652Q271.84198,1124.1652,271.4876,1123.8108Q271.13318,1123.4564,271.13318,1122.9603L265.25034,1122.9607Q265.25034,1124.0945,265.6047,1125.1222Q265.92352,1126.1144,266.526,1127.0002Q267.09305,1127.851,267.90814,1128.5243Q268.7233,1129.1621,269.7156,1129.552L269.7156,1132.2455L275.6695,1132.2456L275.6695,1129.233Q277.3704,1128.3116,278.3982,1126.646Q279.42603,1125.0157,279.42603,1122.9603Q279.42603,1121.5073,278.85892,1120.196Q278.29193,1118.9203,277.3351,1117.9634Q276.37814,1117.0065,275.0669,1116.4396Q273.7911,1115.8724,272.33813,1115.8724L272.1255,1115.8727Q271.70026,1115.8016,271.41666,1115.4473Q271.13318,1115.1282,271.13318,1114.7031Q271.13318,1114.2069,271.4876,1113.817Q271.84198,1113.4626,272.33813,1113.4626Q272.83423,1113.4626,273.18866,1113.8524Q273.54306,1114.2069,273.54306,1114.7032L279.4259,1114.7032Q279.4259,1112.6475,278.39825,1110.982Q277.3705,1109.3162,275.66937,1108.3948L275.66937,1105.7014 Z"/> </g> <g style="fill:rgb(42,175,134); fill-opacity:1.0; stroke-linejoin: miter"> <path d="M269.21695,1105.9991L269.21695,1108.3734Q267.23233,1109.1887,265.99197,1110.9606Q264.75162,1112.7325,264.75162,1115.0007Q264.75162,1116.4536,265.31873,1117.765Q265.88565,1119.0406,266.84256,1119.9976Q267.79938,1120.9545,269.1107,1121.5215Q270.38647,1122.0886,271.83954,1122.0885L272.05215,1122.0886Q272.47736,1122.1594,272.76093,1122.4781Q273.04446,1122.7972,273.04446,1123.258Q273.04446,1123.7542,272.69003,1124.1085Q272.3356,1124.4628,271.83945,1124.4628Q271.3433,1124.4628,270.989,1124.1085Q270.63458,1123.7542,270.63458,1123.258L264.75168,1123.2583Q264.75168,1124.3922,265.10605,1125.4198Q265.42505,1126.412,266.0274,1127.298Q266.59445,1128.1486,267.40955,1128.8219Q268.22464,1129.4598,269.21695,1129.8496L269.21695,1132.5431L275.17075,1132.5432L275.17075,1129.5308Q276.8718,1128.6093,277.8995,1126.9436Q278.92725,1125.3135,278.9273,1123.2579Q278.9273,1121.8052,278.36032,1120.4938Q277.79327,1119.2179,276.83636,1118.261Q275.8796,1117.3042,274.56836,1116.7372Q273.2925,1116.1702,271.83954,1116.1702L271.62683,1116.1704Q271.20157,1116.0992,270.91806,1115.7449Q270.63452,1115.4259,270.63452,1115.0006Q270.63452,1114.5045,270.9889,1114.1146Q271.3433,1113.7603,271.83945,1113.7603Q272.3356,1113.7603,272.69003,1114.1501Q273.04446,1114.5045,273.04446,1115.0007L278.92725,1115.0007Q278.92725,1112.9452,277.89963,1111.2797Q276.8718,1109.6138,275.17075,1108.6924L275.17075,1105.9991 Z"/> </g> <g style="fill:rgb(253,217,8); fill-opacity:1.0; stroke-linejoin: miter"> <path d="M162.18086,1126.0961L162.40819,1121.8668Q164.25754,1109.0686,173.9611,1101.2803Q183.73276,1093.4963,197.13327,1094.7625Q209.9312,1096.6115,217.71979,1106.3148Q220.21564,1109.4519,221.8545,1113.1692L223.24086,1116.9944Q224.39412,1120.9463,224.4642,1125.2582Q224.30785,1138.4961,215.6384,1147.4019Q206.96916,1156.3071,193.74039,1156.8191Q180.5025,1156.6626,171.59726,1147.9937Q162.69221,1139.3246,162.18086,1126.0961 Z"/> </g> <g style="fill:rgb(238,170,1); fill-opacity:1.0; stroke-linejoin: miter"> <path d="M167.05437,1125.9518L167.24678,1122.3844Q168.80684,1111.5894,176.99155,1105.0197Q185.23384,1098.4542,196.53728,1099.5222Q207.33194,1101.082,213.9017,1109.2672Q216.00658,1111.9136,217.38847,1115.0482L218.5585,1118.2749Q219.53104,1121.6078,219.5902,1125.2454Q219.45863,1136.4115,212.14572,1143.9231Q204.83363,1151.435,193.67476,1151.8668Q182.5091,1151.7349,174.99763,1144.4229Q167.48628,1137.1101,167.05437,1125.9518 Z"/> </g> <g style="fill:rgb(255,183,13); fill-opacity:1.0; stroke-linejoin: miter"> <path d="M167.69647,1125.9333L167.88405,1122.4532Q169.40604,1111.922,177.39069,1105.5127Q185.43158,1099.1077,196.45885,1100.1494Q206.98962,1101.6711,213.39883,1109.6562Q215.45233,1112.2378,216.80058,1115.296L217.94185,1118.444Q218.89076,1121.6954,218.94841,1125.244Q218.81993,1136.1373,211.68599,1143.4655Q204.55237,1150.7937,193.66621,1151.2151Q182.7734,1151.0862,175.44556,1143.9528Q168.11777,1136.8188,167.69647,1125.9333 Z"/> </g> <g style="fill:rgb(238,170,1); fill-opacity:1.0; stroke-linejoin: miter"> <path d="M190.95874,1111.4668L190.95874,1114.108Q188.751,1115.0148,187.37119,1116.9861Q185.99141,1118.957,185.99141,1121.4802Q185.99141,1123.0964,186.62215,1124.5554Q187.25293,1125.9746,188.3174,1127.0388Q189.38174,1128.1033,190.84044,1128.7341Q192.25964,1129.365,193.8759,1129.3647L194.11246,1129.365Q194.58556,1129.4436,194.90099,1129.7983Q195.21642,1130.1533,195.21642,1130.6658Q195.21648,1131.218,194.82217,1131.612Q194.42801,1132.0063,193.87602,1132.0062Q193.3241,1132.0062,192.92987,1131.6119Q192.53563,1131.2179,192.53563,1130.6659L185.99135,1130.666Q185.99141,1131.9275,186.38559,1133.0706Q186.74033,1134.1746,187.41061,1135.16Q188.04135,1136.1062,188.94812,1136.8552Q189.85484,1137.565,190.95874,1137.9987L190.95874,1140.9948L197.58177,1140.9948L197.58177,1137.6437Q199.47408,1136.6188,200.61742,1134.7659Q201.76056,1132.9524,201.76056,1130.6658Q201.76056,1129.0493,201.12984,1127.5907Q200.49904,1126.1714,199.43465,1125.1069Q198.37024,1124.0427,196.9116,1123.4119Q195.4924,1122.7811,193.87596,1122.7811L193.63947,1122.7815Q193.16643,1122.7024,192.85106,1122.3082Q192.53563,1121.9534,192.53563,1121.4803Q192.53563,1120.9283,192.92987,1120.4946Q193.32417,1120.1005,193.87596,1120.1003Q194.42793,1120.1005,194.82217,1120.534Q195.21642,1120.9283,195.21642,1121.4802L201.76062,1121.4803Q201.76062,1119.1935,200.61736,1117.3408Q199.47401,1115.4878,197.58171,1114.4628L197.58171,1111.4668 Z"/> </g> <g style="fill:rgb(253,217,8); fill-opacity:1.0; stroke-linejoin: miter"> <path d="M190.40407,1111.7979L190.40407,1114.4391Q188.19626,1115.3458,186.8165,1117.317Q185.43668,1119.2881,185.43668,1121.8113Q185.43668,1123.4275,186.06746,1124.8865Q186.69826,1126.3057,187.76265,1127.37Q188.82706,1128.4343,190.28569,1129.0651Q191.70496,1129.6959,193.32133,1129.6959L193.55789,1129.6963Q194.0308,1129.7745,194.3463,1130.1295Q194.66167,1130.4844,194.66167,1130.9968Q194.66173,1131.549,194.2675,1131.9431Q193.87326,1132.3373,193.32133,1132.3373Q192.76936,1132.3373,192.37512,1131.9431Q191.98088,1131.5488,191.98088,1130.997L185.43668,1130.9971Q185.43674,1132.2585,185.8309,1133.4017Q186.18571,1134.5056,186.85588,1135.491Q187.4866,1136.4373,188.39345,1137.1863Q189.30017,1137.896,190.404,1138.3296L190.404,1141.3258L197.02702,1141.3258L197.02708,1137.9747Q198.91946,1136.9498,200.06273,1135.0969Q201.20601,1133.2836,201.20589,1130.9968Q201.20589,1129.3804,200.57515,1127.9218Q199.94437,1126.5026,198.88002,1125.4381Q197.81563,1124.3738,196.35698,1123.7429Q194.93765,1123.1122,193.32133,1123.1123L193.08478,1123.1125Q192.61174,1123.0334,192.29637,1122.6392Q191.98094,1122.2844,191.98094,1121.8113Q191.98094,1121.2593,192.37524,1120.8258Q192.76949,1120.4314,193.32133,1120.4314Q193.8732,1120.4313,194.26743,1120.8651Q194.66173,1121.2593,194.66173,1121.8113L201.20589,1121.8114Q201.20589,1119.5249,200.06267,1117.6719Q198.91934,1115.8188,197.02702,1114.7937L197.02702,1111.7976 Z"/> </g> <g> <g style="fill:rgb(165,179,188); fill-opacity:1.0; stroke-linejoin: miter"> <path d="M781.67957,1202.605Q784.46216,1202.605,787.2019,1203.9321Q789.72766,1205.1736,791.95386,1208.2131Q794.00867,1210.9957,795.2074,1216.0901Q796.406,1221.1417,796.406,1228.1196L796.406,1228.1196Q796.3987,1235.0857,795.2074,1240.1064Q793.96594,1245.2864,792.0394,1247.9406Q789.81335,1250.98,787.2876,1252.2214Q784.5477,1253.5486,781.67957,1253.5486Q778.8113,1253.5486,776.0714,1252.2214Q773.4601,1250.9371,771.3196,1248.0261Q769.47876,1245.5004,768.19446,1240.1064Q766.953,1234.8835,766.953,1228.0339Q766.953,1221.2272,768.19446,1216.0044Q769.4359,1210.7817,771.3196,1208.2131Q773.54565,1205.1736,776.0714,1203.9321Q778.8113,1202.605,781.67957,1202.605 Z M851.80164,1202.6051Q854.5842,1202.6051,857.3241,1203.9321Q859.84985,1205.1736,862.07605,1208.2131Q864.13086,1210.9957,865.32947,1216.0902Q866.5282,1221.1417,866.5282,1228.1196L866.5282,1228.1196Q866.5209,1235.0857,865.32947,1240.1064Q864.088,1245.2864,862.1616,1247.9407Q859.93555,1250.9801,857.40967,1252.2216Q854.6699,1253.5486,851.80164,1253.5486Q848.9335,1253.5486,846.1936,1252.2216Q843.58215,1250.9373,841.4418,1248.0261Q839.60095,1245.5005,838.31665,1240.1064Q837.0752,1234.8835,837.0752,1228.034Q837.0752,1221.2273,838.31665,1216.0045Q839.5581,1210.7817,841.4418,1208.2131Q843.66785,1205.1736,846.1936,1203.9321Q848.9335,1202.6051,851.80164,1202.6051 Z M903.4302,1202.6051Q906.21265,1202.6051,908.9525,1203.9321Q911.4783,1205.1736,913.70447,1208.2131Q915.7593,1210.9957,916.9579,1216.0902Q918.1566,1221.1417,918.1566,1228.1196L918.1566,1228.1196Q918.1493,1235.0857,916.9579,1240.1064Q915.71643,1245.2864,913.79004,1247.9407Q911.56396,1250.9801,909.0381,1252.2216Q906.29834,1253.5486,903.4302,1253.5486Q900.5619,1253.5486,897.822,1252.2216Q895.2106,1250.9373,893.07007,1248.0261Q891.22925,1245.5005,889.94507,1240.1064Q888.7036,1234.8835,888.7036,1228.034Q888.7036,1221.2273,889.94507,1216.0045Q891.18665,1210.7817,893.07007,1208.2131Q895.29626,1205.1736,897.822,1203.9321Q900.5619,1202.6051,903.4302,1202.6051 Z M816.8262,1249.2249Q815.49915,1249.2249,814.7285,1249.6101Q813.6155,1250.1666,812.9734,1250.8088Q812.16003,1251.6222,811.8175,1252.564Q811.4088,1253.6676,811.39026,1254.5759L811.3894,1254.5759L811.3894,1254.6616L811.39014,1254.6616Q811.4065,1255.6925,811.8175,1256.8021Q812.16003,1257.7439,812.9734,1258.5573Q813.57263,1259.1566,814.7285,1259.5847Q815.8844,1260.013,816.8262,1260.013Q817.76807,1260.013,818.9238,1259.5847Q819.9513,1259.1995,820.5935,1258.5573Q821.40686,1257.7439,821.7494,1256.8021Q822.0918,1255.9031,822.0918,1254.6616Q822.0918,1253.463,821.7494,1252.564Q821.40686,1251.6222,820.5935,1250.8088Q819.8657,1250.081,818.9238,1249.6101Q818.1533,1249.2249,816.8262,1249.2249 Z M781.67957,1195.9268Q777.0989,1195.9268,772.7323,1197.8531Q768.8367,1199.5656,765.4547,1203.761Q762.672,1207.2285,760.66003,1213.7356Q758.9048,1219.4292,758.9048,1228.0339Q758.9048,1236.6388,760.66003,1242.3324Q762.672,1248.8395,765.4547,1252.3071Q768.751,1256.4167,772.7323,1258.1721Q777.0989,1260.0984,781.67957,1260.0984Q786.26013,1260.0984,790.6267,1258.1721Q794.60803,1256.4167,797.9044,1252.3071Q800.7726,1248.7539,802.7418,1242.3324Q804.4971,1236.6388,804.4971,1228.0339L804.58264,1228.0339Q804.58264,1219.686,802.7418,1213.7356Q800.7726,1207.3141,797.9044,1203.761Q794.52246,1199.5656,790.6267,1197.8531Q786.26013,1195.9268,781.67957,1195.9268 Z M851.80164,1195.9269Q847.22095,1195.9269,842.8545,1197.8531Q838.95874,1199.5657,835.5769,1203.761Q832.7942,1207.2286,830.7822,1213.7356Q829.027,1219.4293,829.027,1228.034Q829.027,1236.6388,830.7822,1242.3325Q832.7942,1248.8396,835.5769,1252.3071Q838.87317,1256.4169,842.8545,1258.1721Q847.22095,1260.0985,851.80164,1260.0985Q856.3822,1260.0985,860.7489,1258.1721Q864.7301,1256.4169,868.0265,1252.3071Q870.8948,1248.754,872.864,1242.3325Q874.61926,1236.6388,874.61926,1228.034L874.70483,1228.034Q874.70483,1219.6862,872.864,1213.7356Q870.8948,1207.3141,868.0265,1203.761Q864.64453,1199.5657,860.7489,1197.8531Q856.3822,1195.9269,851.80164,1195.9269 Z M903.4302,1195.9269Q898.8495,1195.9269,894.4829,1197.8531Q890.5873,1199.5657,887.2053,1203.761Q884.4226,1207.2286,882.4105,1213.7356Q880.6554,1219.4293,880.6554,1228.034Q880.6554,1236.6388,882.4105,1242.3325Q884.4226,1248.8396,887.2053,1252.3071Q890.5016,1256.4169,894.4829,1258.1721Q898.8495,1260.0985,903.4302,1260.0985Q908.01074,1260.0985,912.3773,1258.1721Q916.3585,1256.4169,919.6549,1252.3071Q922.5232,1248.754,924.49243,1242.3325Q926.2477,1236.6388,926.2477,1228.034L926.33325,1228.034Q926.33325,1219.6862,924.49243,1213.7356Q922.5232,1207.3141,919.6549,1203.761Q916.2731,1199.5657,912.3773,1197.8531Q908.01074,1195.9269,903.4302,1195.9269 Z"/> </g> </g> <g> <g style="fill:rgb(165,179,188); fill-opacity:1.0; stroke-linejoin: miter"> <path d="M198.14398,1202.605Q200.92662,1202.605,203.66644,1203.9321Q206.19217,1205.1736,208.4183,1208.2131Q210.47314,1210.9957,211.67186,1216.0901Q212.87053,1221.1417,212.87053,1228.1196L212.87045,1228.1196Q212.86317,1235.0857,211.67186,1240.1064Q210.43037,1245.2864,208.5039,1247.9406Q206.27783,1250.98,203.75203,1252.2214Q201.01222,1253.5486,198.14398,1253.5486Q195.27576,1253.5486,192.53587,1252.2214Q189.92448,1250.9371,187.78401,1248.0261Q185.94319,1245.5004,184.65887,1240.1064Q183.41739,1234.8835,183.41739,1228.0339Q183.41739,1221.2272,184.65887,1216.0044Q185.90036,1210.7817,187.78401,1208.2131Q190.01009,1205.1736,192.53595,1203.9321Q195.27576,1202.605,198.14398,1202.605 Z M268.26614,1202.6051Q271.0488,1202.6051,273.7886,1203.9321Q276.3144,1205.1736,278.54053,1208.2131Q280.59537,1210.9957,281.79404,1216.0902Q282.99268,1221.1417,282.99268,1228.1196L282.99268,1228.1196Q282.9854,1235.0857,281.79404,1240.1064Q280.55255,1245.2864,278.6262,1247.9407Q276.40005,1250.9801,273.87427,1252.2216Q271.13446,1253.5486,268.26614,1253.5486Q265.39792,1253.5486,262.6581,1252.2216Q260.04666,1250.9373,257.90622,1248.0261Q256.06543,1245.5005,254.78116,1240.1064Q253.53967,1234.8835,253.53967,1228.034Q253.53967,1221.2273,254.78116,1216.0045Q256.02258,1210.7817,257.90622,1208.2131Q260.1323,1205.1736,262.6581,1203.9321Q265.39792,1202.6051,268.26614,1202.6051 Z M319.89468,1202.6051Q322.6772,1202.6051,325.417,1203.9321Q327.9428,1205.1736,330.16895,1208.2131Q332.2238,1210.9957,333.42242,1216.0902Q334.6211,1221.1417,334.6211,1228.1196L334.6211,1228.1196Q334.6138,1235.0857,333.42242,1240.1064Q332.18094,1245.2864,330.2546,1247.9407Q328.02847,1250.9801,325.50266,1252.2216Q322.76285,1253.5486,319.89468,1253.5486Q317.0264,1253.5486,314.2866,1252.2216Q311.6751,1250.9373,309.53464,1248.0261Q307.69382,1245.5005,306.40964,1240.1064Q305.16815,1234.8835,305.16815,1228.034Q305.16815,1221.2273,306.40964,1216.0045Q307.65112,1210.7817,309.53464,1208.2131Q311.76077,1205.1736,314.2866,1203.9321Q317.0264,1202.6051,319.89468,1202.6051 Z M233.2907,1249.2249Q231.96361,1249.2249,231.19304,1249.6101Q230.07997,1250.1666,229.4378,1250.8088Q228.62447,1251.6222,228.28198,1252.564Q227.87323,1253.6676,227.85478,1254.5759L227.8539,1254.5759L227.8539,1254.6616L227.85458,1254.6616Q227.87097,1255.6925,228.28198,1256.8021Q228.62447,1257.7439,229.4378,1258.5573Q230.03714,1259.1566,231.19304,1259.5847Q232.34888,1260.013,233.2907,1260.013Q234.23251,1260.013,235.38835,1259.5847Q236.41582,1259.1995,237.05798,1258.5573Q237.87132,1257.7439,238.2138,1256.8021Q238.5563,1255.9031,238.5563,1254.6616Q238.5563,1253.463,238.2138,1252.564Q237.87132,1251.6222,237.05798,1250.8088Q236.33017,1250.081,235.38835,1249.6101Q234.61783,1249.2249,233.2907,1249.2249 Z M198.14398,1195.9268Q193.56335,1195.9268,189.19673,1197.8531Q185.30103,1199.5656,181.91907,1203.761Q179.13643,1207.2285,177.12442,1213.7356Q175.3692,1219.4292,175.3692,1228.0339Q175.3692,1236.6388,177.12442,1242.3324Q179.13643,1248.8395,181.91907,1252.3071Q185.21538,1256.4167,189.19667,1258.1721Q193.56335,1260.0984,198.14398,1260.0984Q202.72461,1260.0984,207.09123,1258.1721Q211.07253,1256.4167,214.36885,1252.3071Q217.23708,1248.7539,219.20631,1242.3324Q220.96153,1236.6388,220.96153,1228.0339L221.04713,1228.0339Q221.04713,1219.686,219.20631,1213.7356Q217.23708,1207.3141,214.36885,1203.761Q210.98688,1199.5656,207.09123,1197.8531Q202.72461,1195.9268,198.14398,1195.9268 Z M268.26614,1195.9269Q263.68546,1195.9269,259.31897,1197.8531Q255.42325,1199.5657,252.04135,1203.761Q249.25873,1207.2286,247.24664,1213.7356Q245.49142,1219.4293,245.49142,1228.034Q245.49142,1236.6388,247.24664,1242.3325Q249.25873,1248.8396,252.04135,1252.3071Q255.33768,1256.4169,259.31897,1258.1721Q263.68546,1260.0985,268.26614,1260.0985Q272.84677,1260.0985,277.2134,1258.1721Q281.1947,1256.4169,284.491,1252.3071Q287.3593,1248.754,289.3286,1242.3325Q291.08377,1236.6388,291.08377,1228.034L291.16943,1228.034Q291.16943,1219.6862,289.3286,1213.7356Q287.3593,1207.3141,284.491,1203.761Q281.10904,1199.5657,277.2134,1197.8531Q272.84677,1195.9269,268.26614,1195.9269 Z M319.89468,1195.9269Q315.31406,1195.9269,310.94745,1197.8531Q307.0518,1199.5657,303.66983,1203.761Q300.88718,1207.2286,298.87506,1213.7356Q297.1199,1219.4293,297.1199,1228.034Q297.1199,1236.6388,298.87506,1242.3325Q300.88718,1248.8396,303.66983,1252.3071Q306.96613,1256.4169,310.94745,1258.1721Q315.31406,1260.0985,319.89468,1260.0985Q324.4753,1260.0985,328.8418,1258.1721Q332.8231,1256.4169,336.11942,1252.3071Q338.9877,1248.754,340.957,1242.3325Q342.71222,1236.6388,342.71222,1228.034L342.79788,1228.034Q342.79788,1219.6862,340.957,1213.7356Q338.9877,1207.3141,336.11942,1203.761Q332.73758,1199.5657,328.8418,1197.8531Q324.4753,1195.9269,319.89468,1195.9269 Z"/> </g> </g> </g> </svg>